<mxfile host="app.diagrams.net" agent="Mozilla/5.0 (X11; Linux x86_64; rv:134.0) Gecko/20100101 Firefox/134.0" version="24.8.6">
  <diagram name="Page-1" id="2wL30KEZV8tuVMMlEgBO">
    <mxGraphModel dx="1114" dy="579" grid="1" gridSize="10" guides="1" tooltips="1" connect="1" arrows="1" fold="1" page="1" pageScale="1" pageWidth="850" pageHeight="1100" math="0" shadow="0">
      <root>
        <mxCell id="0" />
        <mxCell id="1" parent="0" />
        <mxCell id="q2XQSU8ORKNL5bD_iSrh-7" style="edgeStyle=orthogonalEdgeStyle;rounded=0;orthogonalLoop=1;jettySize=auto;html=1;shape=link;" edge="1" parent="1" source="q2XQSU8ORKNL5bD_iSrh-1" target="q2XQSU8ORKNL5bD_iSrh-6">
          <mxGeometry relative="1" as="geometry" />
        </mxCell>
        <mxCell id="q2XQSU8ORKNL5bD_iSrh-1" value="&lt;div&gt;Internal&lt;/div&gt;&lt;div&gt;Site&lt;br&gt;&lt;/div&gt;" style="whiteSpace=wrap;html=1;aspect=fixed;" vertex="1" parent="1">
          <mxGeometry x="120" y="80" width="80" height="80" as="geometry" />
        </mxCell>
        <mxCell id="q2XQSU8ORKNL5bD_iSrh-2" value="&lt;div&gt;Personal&lt;/div&gt;&lt;div&gt;Blog&lt;br&gt;&lt;/div&gt;" style="whiteSpace=wrap;html=1;aspect=fixed;" vertex="1" parent="1">
          <mxGeometry x="120" y="200" width="80" height="80" as="geometry" />
        </mxCell>
        <mxCell id="q2XQSU8ORKNL5bD_iSrh-13" value="Only serve related content" style="edgeStyle=orthogonalEdgeStyle;rounded=0;orthogonalLoop=1;jettySize=auto;html=1;" edge="1" parent="1" source="q2XQSU8ORKNL5bD_iSrh-3" target="q2XQSU8ORKNL5bD_iSrh-4">
          <mxGeometry relative="1" as="geometry">
            <Array as="points">
              <mxPoint x="425" y="360" />
            </Array>
          </mxGeometry>
        </mxCell>
        <mxCell id="q2XQSU8ORKNL5bD_iSrh-3" value="&lt;div&gt;Public&lt;/div&gt;&lt;div&gt;Website&lt;br&gt;&lt;/div&gt;" style="whiteSpace=wrap;html=1;aspect=fixed;" vertex="1" parent="1">
          <mxGeometry x="120" y="320" width="80" height="80" as="geometry" />
        </mxCell>
        <mxCell id="q2XQSU8ORKNL5bD_iSrh-14" style="edgeStyle=orthogonalEdgeStyle;rounded=0;orthogonalLoop=1;jettySize=auto;html=1;shape=link;" edge="1" parent="1" source="q2XQSU8ORKNL5bD_iSrh-4" target="q2XQSU8ORKNL5bD_iSrh-5">
          <mxGeometry relative="1" as="geometry" />
        </mxCell>
        <mxCell id="q2XQSU8ORKNL5bD_iSrh-4" value="API" style="sketch=0;points=[[0,0,0],[0.25,0,0],[0.5,0,0],[0.75,0,0],[1,0,0],[0,1,0],[0.25,1,0],[0.5,1,0],[0.75,1,0],[1,1,0],[0,0.25,0],[0,0.5,0],[0,0.75,0],[1,0.25,0],[1,0.5,0],[1,0.75,0]];outlineConnect=0;fontColor=#232F3E;fillColor=#8C4FFF;strokeColor=#ffffff;dashed=0;verticalLabelPosition=middle;verticalAlign=middle;align=right;html=1;fontSize=12;fontStyle=0;aspect=fixed;shape=mxgraph.aws4.resourceIcon;resIcon=mxgraph.aws4.api_gateway;labelPosition=left;spacingRight=10;" vertex="1" parent="1">
          <mxGeometry x="386" y="260" width="78" height="78" as="geometry" />
        </mxCell>
        <mxCell id="q2XQSU8ORKNL5bD_iSrh-9" value="&lt;div&gt;Ask catalog for content&lt;/div&gt;" style="edgeStyle=orthogonalEdgeStyle;rounded=0;orthogonalLoop=1;jettySize=auto;html=1;" edge="1" parent="1" source="q2XQSU8ORKNL5bD_iSrh-5" target="q2XQSU8ORKNL5bD_iSrh-6">
          <mxGeometry relative="1" as="geometry">
            <Array as="points">
              <mxPoint x="450" y="140" />
              <mxPoint x="450" y="140" />
            </Array>
          </mxGeometry>
        </mxCell>
        <mxCell id="q2XQSU8ORKNL5bD_iSrh-5" value="&lt;div&gt;Content&lt;/div&gt;&lt;div&gt;Catalog&lt;br&gt;&lt;/div&gt;" style="sketch=0;points=[[0,0,0],[0.25,0,0],[0.5,0,0],[0.75,0,0],[1,0,0],[0,1,0],[0.25,1,0],[0.5,1,0],[0.75,1,0],[1,1,0],[0,0.25,0],[0,0.5,0],[0,0.75,0],[1,0.25,0],[1,0.5,0],[1,0.75,0]];outlineConnect=0;fontColor=#232F3E;fillColor=#C925D1;strokeColor=#ffffff;dashed=0;verticalLabelPosition=middle;verticalAlign=middle;align=left;html=1;fontSize=12;fontStyle=0;aspect=fixed;shape=mxgraph.aws4.resourceIcon;resIcon=mxgraph.aws4.dynamodb;labelPosition=right;spacingRight=0;spacingLeft=10;" vertex="1" parent="1">
          <mxGeometry x="560" y="81" width="78" height="78" as="geometry" />
        </mxCell>
        <mxCell id="q2XQSU8ORKNL5bD_iSrh-8" value="&lt;div&gt;Post to catalog&lt;/div&gt;" style="edgeStyle=orthogonalEdgeStyle;rounded=0;orthogonalLoop=1;jettySize=auto;html=1;" edge="1" parent="1" source="q2XQSU8ORKNL5bD_iSrh-6" target="q2XQSU8ORKNL5bD_iSrh-5">
          <mxGeometry relative="1" as="geometry">
            <Array as="points">
              <mxPoint x="470" y="100" />
              <mxPoint x="470" y="100" />
            </Array>
          </mxGeometry>
        </mxCell>
        <mxCell id="q2XQSU8ORKNL5bD_iSrh-18" value="Can opt-in to disabling access for account" style="edgeStyle=orthogonalEdgeStyle;rounded=0;orthogonalLoop=1;jettySize=auto;html=1;verticalAlign=top;labelPosition=center;verticalLabelPosition=bottom;align=center;spacingTop=50;" edge="1" parent="1" source="q2XQSU8ORKNL5bD_iSrh-6" target="q2XQSU8ORKNL5bD_iSrh-4">
          <mxGeometry relative="1" as="geometry">
            <Array as="points">
              <mxPoint x="450" y="120" />
            </Array>
          </mxGeometry>
        </mxCell>
        <mxCell id="q2XQSU8ORKNL5bD_iSrh-6" value="Accounts" style="sketch=0;points=[[0,0,0],[0.25,0,0],[0.5,0,0],[0.75,0,0],[1,0,0],[0,1,0],[0.25,1,0],[0.5,1,0],[0.75,1,0],[1,1,0],[0,0.25,0],[0,0.5,0],[0,0.75,0],[1,0.25,0],[1,0.5,0],[1,0.75,0]];outlineConnect=0;fontColor=#232F3E;fillColor=#DD344C;strokeColor=#ffffff;dashed=0;verticalLabelPosition=bottom;verticalAlign=top;align=center;html=1;fontSize=12;fontStyle=0;aspect=fixed;shape=mxgraph.aws4.resourceIcon;resIcon=mxgraph.aws4.cognito;" vertex="1" parent="1">
          <mxGeometry x="280" y="81" width="78" height="78" as="geometry" />
        </mxCell>
        <mxCell id="q2XQSU8ORKNL5bD_iSrh-12" value="Only serve related content" style="edgeStyle=orthogonalEdgeStyle;rounded=0;orthogonalLoop=1;jettySize=auto;html=1;entryX=0.5;entryY=0;entryDx=0;entryDy=0;entryPerimeter=0;" edge="1" parent="1" source="q2XQSU8ORKNL5bD_iSrh-2" target="q2XQSU8ORKNL5bD_iSrh-4">
          <mxGeometry relative="1" as="geometry" />
        </mxCell>
        <mxCell id="q2XQSU8ORKNL5bD_iSrh-15" value="Serve account-specific (requires voucher)" style="edgeStyle=orthogonalEdgeStyle;rounded=0;orthogonalLoop=1;jettySize=auto;html=1;entryX=0.5;entryY=1;entryDx=0;entryDy=0;entryPerimeter=0;exitX=1.013;exitY=0.875;exitDx=0;exitDy=0;exitPerimeter=0;" edge="1" parent="1" source="q2XQSU8ORKNL5bD_iSrh-3">
          <mxGeometry relative="1" as="geometry">
            <mxPoint x="220" y="390" as="sourcePoint" />
            <mxPoint x="445" y="338" as="targetPoint" />
            <Array as="points">
              <mxPoint x="445" y="390" />
            </Array>
          </mxGeometry>
        </mxCell>
        <mxCell id="q2XQSU8ORKNL5bD_iSrh-16" value="Third Party Non Intrusive" style="text;strokeColor=none;fillColor=none;html=1;fontSize=24;fontStyle=1;verticalAlign=middle;align=center;" vertex="1" parent="1">
          <mxGeometry x="375" y="10" width="100" height="40" as="geometry" />
        </mxCell>
      </root>
    </mxGraphModel>
  </diagram>
</mxfile>
